<svg width="153" height="83" viewBox="0 0 153 83" fill="none" xmlns="http://www.w3.org/2000/svg">
<g clip-path="url(#clip0_101_2)">
<path d="M64.0889 24.9919V33.8291H78.2631V44.8497H64.0889V54.4468H91.2922V65.8474H56.2475C54.421 65.8474 52.848 65.1982 51.5236 63.8996C50.2015 62.6011 49.5393 61.002 49.5393 59.1023V13.5889H90.3455V24.9895H64.0865L64.0889 24.9919Z" fill="#3C3C3B"/>
<path d="M26.4622 7.75269C34.3036 7.75269 40.5337 9.67162 45.1548 13.5095C49.776 17.3474 52.0854 22.5751 52.0854 29.1952C52.0854 35.8153 49.776 41.0431 45.1548 44.881C40.5337 48.7188 34.3036 50.6378 26.4622 50.6378H16.3808V59.9319C16.3808 61.5526 15.8023 62.9425 14.6476 64.104C13.4929 65.2655 12.0752 65.8474 10.3946 65.8474H0V7.75269H26.4622ZM16.3808 20.6394V37.6453H25.4127C28.774 37.6453 31.3105 36.9239 33.027 35.4811C34.7411 34.0383 35.5994 31.9438 35.5994 29.1952C35.5994 26.4467 34.7411 24.3354 33.027 22.8565C31.3129 21.3776 28.774 20.6394 25.4127 20.6394H16.3808Z" fill="#3C3C3B"/>
<path d="M136.39 65.6382C133.306 65.6382 130.932 64.3661 129.27 61.8196L118.235 45.2297L118.211 45.2657L113.47 38.2633C110.719 33.8002 110.702 31.9438 113.49 27.4494L129.627 2.86398C130.97 0.954659 132.751 0 134.965 0H151.575L128.795 31.6264L153 65.6406H136.39V65.6382Z" fill="#3C3C3B"/>
<path d="M97.7877 71.6547C100.79 71.6547 103.1 70.4163 104.716 67.9371L115.455 51.7944L115.476 51.8281L120.09 45.0132C122.768 40.6704 122.784 38.8645 120.073 34.4879L104.372 10.5638C103.064 8.70494 101.331 7.77673 99.1766 7.77673H83.011L105.18 38.5543L81.6244 71.6547H97.7901H97.7877Z" fill="#F09200"/>
<path d="M16.2158 76.3174C17.1027 76.3174 17.7817 76.5362 18.255 76.9715C18.7284 77.4067 18.9651 78.0127 18.9651 78.7894C18.9651 79.5661 18.7332 80.1817 18.2718 80.6338C17.8104 81.0859 17.1051 81.3119 16.1584 81.3119H14.4611V76.315H16.2158V76.3174ZM16.2732 80.326C16.78 80.326 17.1697 80.1986 17.4422 79.9413C17.7148 79.684 17.851 79.3088 17.851 78.8183C17.851 78.3277 17.7148 77.9502 17.4422 77.6857C17.1697 77.4211 16.7513 77.2889 16.1871 77.2889H15.5679V80.326H16.2708H16.2732ZM24.705 76.3174V77.3105H22.2331V78.3397H24.4564V79.2896H22.2331V80.326H24.7839V81.3119H21.1238V76.315H24.705V76.3174ZM26.969 81.3143V76.3174H28.0783V80.3188H30.1964V81.3119H26.9714L26.969 81.3143ZM32.2022 76.3174H33.3114V81.3143H32.2022V76.3174ZM37.5644 79.4988L38.8291 76.3174H40.0292L38.033 81.3143H37.0958L35.0996 76.3174H36.2998L37.5644 79.4988ZM45.3986 76.3174V77.3105H42.9267V78.3397H45.15V79.2896H42.9267V80.326H45.4775V81.3119H41.8174V76.315H45.3986V76.3174ZM51.6908 77.9766C51.6908 78.7774 51.3753 79.2944 50.7465 79.5276L52.004 81.3143H50.639L49.5369 79.72H48.7695V81.3143H47.6602V76.3174H49.544C50.3162 76.3174 50.8661 76.4472 51.196 76.7094C51.5259 76.9715 51.6908 77.3923 51.6908 77.9742V77.9766ZM49.5799 78.7557C49.96 78.7557 50.2182 78.6932 50.3545 78.5706C50.4907 78.4455 50.5601 78.2508 50.5601 77.9814C50.5601 77.7121 50.4883 77.5269 50.3473 77.4284C50.2062 77.3274 49.9576 77.2793 49.6014 77.2793H48.7695V78.7581H49.5799V78.7557ZM56.0347 81.3143H54.9254V79.3425L53.2065 76.3198H54.4066L55.48 78.1786L56.5534 76.3198H57.7536L56.0347 79.3425V81.3143ZM63.1158 76.3174C64.0028 76.3174 64.6817 76.5362 65.1551 76.9715C65.6284 77.4067 65.8651 78.0127 65.8651 78.7894C65.8651 79.5661 65.6332 80.1817 65.1718 80.6338C64.7104 81.0859 64.0051 81.3119 63.0584 81.3119H61.3611V76.315H63.1158V76.3174ZM63.1732 80.326C63.68 80.326 64.0697 80.1986 64.3422 79.9413C64.6148 79.684 64.751 79.3088 64.751 78.8183C64.751 78.3277 64.6148 77.9502 64.3422 77.6857C64.0697 77.4211 63.6513 77.2889 63.0871 77.2889H62.4679V80.326H63.1708H63.1732ZM71.4186 81.3119L70.9572 80.2322H68.8749L68.4135 81.3119H67.2349L69.3817 76.315H70.4551L72.602 81.3119H71.4234H71.4186ZM69.9196 77.8035L69.2933 79.2535H70.5364L69.9172 77.8035H69.9196ZM78.5284 80.326C79.0735 80.326 79.5182 80.1096 79.8648 79.6767L80.5748 80.4126C80.0106 81.0522 79.346 81.3696 78.581 81.3696C77.816 81.3696 77.1849 81.1268 76.69 80.641C76.1951 80.1553 75.9465 79.5421 75.9465 78.8014C75.9465 78.0608 76.1975 77.4428 76.7043 76.9474C77.2088 76.4521 77.8256 76.2044 78.5547 76.2044C79.3699 76.2044 80.0513 76.517 80.6011 77.1398L79.9126 77.9261C79.5612 77.4885 79.1261 77.2696 78.6049 77.2696C78.1889 77.2696 77.8327 77.4067 77.5363 77.6809C77.2398 77.955 77.0916 78.3229 77.0916 78.7894C77.0916 79.2559 77.2303 79.6262 77.51 79.9076C77.7897 80.1889 78.1292 80.3284 78.526 80.3284L78.5284 80.326ZM86.3411 78.787C86.3411 78.3421 86.2001 77.9622 85.9156 77.6472C85.6311 77.3322 85.282 77.1759 84.8685 77.1759C84.4549 77.1759 84.1058 77.3322 83.8213 77.6472C83.5369 77.9622 83.3958 78.3421 83.3958 78.787C83.3958 79.2319 83.5369 79.6118 83.8213 79.9244C84.1058 80.237 84.4549 80.3933 84.8685 80.3933C85.282 80.3933 85.6335 80.237 85.9156 79.9244C86.2001 79.6118 86.3411 79.2343 86.3411 78.787ZM86.7188 80.6242C86.2168 81.1171 85.5976 81.3648 84.8637 81.3648C84.1297 81.3648 83.5106 81.1171 83.0085 80.6242C82.5065 80.1312 82.2555 79.518 82.2555 78.7846C82.2555 78.0512 82.5065 77.438 83.0085 76.945C83.5106 76.4521 84.1297 76.2044 84.8637 76.2044C85.5976 76.2044 86.2168 76.4521 86.7188 76.945C87.2209 77.438 87.4719 78.0512 87.4719 78.7846C87.4719 79.518 87.2209 80.1312 86.7188 80.6242ZM93.0828 76.3174H94.192V81.3143H93.0828L90.716 78.1834V81.3143H89.6068V76.3174H90.6443L93.0804 79.5325V76.3174H93.0828ZM98.2107 77.1831C98.0267 77.1831 97.8808 77.2264 97.7733 77.3153C97.6657 77.4043 97.6131 77.5197 97.6131 77.6664C97.6131 77.8131 97.6776 77.9285 97.8091 78.0127C97.9382 78.0993 98.2394 78.2003 98.7104 78.3157C99.1814 78.4335 99.5471 78.6066 99.8077 78.8399C100.068 79.0732 100.197 79.4146 100.197 79.8619C100.197 80.3092 100.03 80.6723 99.6953 80.9512C99.3606 81.2302 98.9232 81.3696 98.3781 81.3696C97.5916 81.3696 96.8839 81.0763 96.2528 80.4895L96.9126 79.6743C97.4481 80.1456 97.943 80.3813 98.3972 80.3813C98.6004 80.3813 98.7606 80.338 98.8777 80.2491C98.9949 80.1601 99.0523 80.0423 99.0523 79.8908C99.0523 79.7393 98.9901 79.6214 98.8682 79.5325C98.7439 79.4435 98.5 79.3545 98.1366 79.2655C97.5581 79.1285 97.1349 78.9481 96.8672 78.7269C96.5994 78.5057 96.4656 78.157 96.4656 77.6833C96.4656 77.2095 96.6353 76.844 96.9748 76.5867C97.3142 76.3294 97.7374 76.202 98.2442 76.202C98.5765 76.202 98.9064 76.2597 99.2387 76.3727C99.571 76.4881 99.8603 76.6492 100.107 76.8584L99.5447 77.6736C99.1144 77.3442 98.6674 77.1807 98.2084 77.1807L98.2107 77.1831ZM104.403 77.2841V81.3143H103.293V77.2841H101.885V76.3198H105.808V77.2841H104.4H104.403ZM111.847 77.9766C111.847 78.7774 111.532 79.2944 110.903 79.5276L112.16 81.3143H110.795L109.693 79.72H108.926V81.3143H107.816V76.3174H109.7C110.472 76.3174 111.022 76.4472 111.352 76.7094C111.682 76.9715 111.847 77.3923 111.847 77.9742V77.9766ZM109.736 78.7557C110.116 78.7557 110.374 78.6932 110.511 78.5706C110.647 78.4455 110.716 78.2508 110.716 77.9814C110.716 77.7121 110.645 77.5269 110.504 77.4284C110.362 77.3274 110.114 77.2793 109.758 77.2793H108.926V78.7581H109.736V78.7557ZM115.495 80.0254C115.679 80.2563 115.928 80.3717 116.241 80.3717C116.554 80.3717 116.801 80.2563 116.985 80.0254C117.166 79.7946 117.257 79.4796 117.257 79.078V76.3198H118.366V79.114C118.366 79.8378 118.168 80.3957 117.769 80.7829C117.37 81.17 116.863 81.3648 116.241 81.3648C115.62 81.3648 115.11 81.17 114.711 80.7781C114.312 80.3885 114.111 79.833 114.111 79.1116V76.3174H115.22V79.0756C115.22 79.4747 115.314 79.7922 115.498 80.023L115.495 80.0254ZM122.995 80.3284C123.54 80.3284 123.984 80.112 124.331 79.6791L125.041 80.415C124.563 80.9584 123.989 81.271 123.322 81.3504L123.138 81.6943C123.447 81.8001 123.6 81.9804 123.6 82.2377C123.6 82.4421 123.516 82.6225 123.349 82.774C123.181 82.9255 122.968 83.0024 122.713 83.0024C122.457 83.0024 122.208 82.9255 121.967 82.774L122.237 82.1584C122.342 82.2497 122.433 82.293 122.514 82.293C122.595 82.293 122.658 82.2714 122.703 82.2281C122.749 82.1848 122.77 82.1319 122.77 82.067C122.77 82.0021 122.741 81.9444 122.684 81.8963C122.627 81.8458 122.56 81.8217 122.481 81.8217C122.402 81.8217 122.318 81.8434 122.227 81.8866L122.519 81.3288C121.902 81.2229 121.398 80.9392 121.006 80.4751C120.614 80.011 120.415 79.4315 120.415 78.7341C120.415 78.0367 120.666 77.4428 121.173 76.9474C121.677 76.4521 122.294 76.2044 123.023 76.2044C123.839 76.2044 124.52 76.517 125.07 77.1398L124.381 77.9261C124.03 77.4885 123.595 77.2696 123.074 77.2696C122.658 77.2696 122.301 77.4067 122.005 77.6809C121.709 77.955 121.56 78.3229 121.56 78.7894C121.56 79.2559 121.699 79.6262 121.979 79.9076C122.258 80.1889 122.598 80.3284 122.995 80.3284ZM130.652 81.3143L130.191 80.2346H128.108L127.647 81.3143H126.468L128.615 76.3174H129.689L131.835 81.3143H130.657H130.652ZM129.153 77.8059L128.527 79.2559H129.77L129.151 77.8059H129.153ZM128.699 75.4469C128.553 75.4469 128.481 75.5719 128.486 75.8196H127.733C127.733 75.4613 127.81 75.1824 127.965 74.9756C128.118 74.7712 128.316 74.6678 128.558 74.6678C128.708 74.6678 128.893 74.7327 129.108 74.865C129.323 74.9948 129.454 75.0621 129.502 75.0621C129.648 75.0621 129.72 74.9371 129.715 74.6894H130.468C130.468 75.0477 130.391 75.3291 130.236 75.5335C130.083 75.7379 129.885 75.8413 129.643 75.8413C129.497 75.8413 129.311 75.7763 129.089 75.6441C128.866 75.5142 128.735 75.4469 128.699 75.4469ZM137.408 78.787C137.408 78.3421 137.267 77.9622 136.982 77.6472C136.698 77.3322 136.349 77.1759 135.935 77.1759C135.522 77.1759 135.17 77.3322 134.888 77.6472C134.604 77.9622 134.463 78.3421 134.463 78.787C134.463 79.2319 134.604 79.6118 134.888 79.9244C135.173 80.237 135.522 80.3933 135.935 80.3933C136.349 80.3933 136.7 80.237 136.982 79.9244C137.267 79.6118 137.408 79.2343 137.408 78.787ZM137.786 80.6242C137.284 81.1171 136.665 81.3648 135.931 81.3648C135.197 81.3648 134.577 81.1171 134.075 80.6242C133.573 80.1312 133.322 79.518 133.322 78.7846C133.322 78.0512 133.573 77.438 134.075 76.945C134.577 76.4521 135.197 76.2044 135.931 76.2044C136.665 76.2044 137.284 76.4521 137.786 76.945C138.288 77.438 138.539 78.0512 138.539 78.7846C138.539 79.518 138.288 80.1312 137.786 80.6242Z" fill="#9D9C9C"/>
</g>
<defs>
<clipPath id="clip0_101_2">
<rect width="153" height="83" fill="white"/>
</clipPath>
</defs>
</svg>
